<svg height="464pt" viewBox="-40 0 464 464" width="1364pt" xmlns="http://www.w3.org/2000/svg"><path d="m176 376h32v64h-32zm0 0" fill="#bec3d1"/><path d="m32 120v152c0 61.855469 50.144531 112 112 112h96c61.855469 0 112-50.144531 112-112v-152h-32v152c0 44.183594-35.816406 80-80 80h-96c-44.183594 0-80-35.816406-80-80v-152zm0 0" fill="#e38100"/><path d="m104 432h176c17.671875 0 32 14.328125 32 32h-240c0-17.671875 14.328125-32 32-32zm0 0" fill="#9196a9"/><path d="m0 152h104v32h-104zm0 0" fill="#bf5b00"/><path d="m280 152h104v32h-104zm0 0" fill="#bf5b00"/><path d="m144 0h96c26.507812 0 48 21.492188 48 48v224c0 26.507812-21.492188 48-48 48h-96c-26.507812 0-48-21.492188-48-48v-224c0-26.507812 21.492188-48 48-48zm0 0" fill="#dce1ea"/><path d="m96 64h192v192h-192zm0 0" fill="#bec3d1"/><g fill="#9196a9"><path d="m168 0h16v40h-16zm0 0"/><path d="m200 0h16v40h-16zm0 0"/><path d="m232 0h16v40h-16zm0 0"/><path d="m136 0h16v40h-16zm0 0"/><path d="m168 280h16v40h-16zm0 0"/><path d="m200 280h16v40h-16zm0 0"/><path d="m136 280h16v40h-16zm0 0"/><path d="m120 88h144v16h-144zm0 0"/><path d="m120 120h144v16h-144zm0 0"/><path d="m120 152h144v16h-144zm0 0"/><path d="m120 184h144v16h-144zm0 0"/><path d="m120 216h144v16h-144zm0 0"/><path d="m184 96h16v128h-16zm0 0"/><path d="m232 280h16v40h-16zm0 0"/></g><path d="m208 160c0 8.835938-7.164062 16-16 16s-16-7.164062-16-16 7.164062-16 16-16 16 7.164062 16 16zm0 0" fill="#bec3d1"/></svg>